<svg id="contenido" xmlns="http://www.w3.org/2000/svg" viewBox="0 0 363 110"><defs><style>.cls-1,.cls-2{fill:#fff;}.cls-2{fill-rule:evenodd;}</style></defs><title>logo-colmex-bco</title><path class="cls-1" d="M81.74,28.58c0,1.71,0,1.71,1.9,1.71h5.42c5.22,0,3.87-4.07,5.06-4.07.41,0,.56.6.56,1,0,1.76-.1,3.47-.1,5.12,0,1.31.1,2.61.1,4,0,.45-.2.7-.56.7-1.55,0,.16-4.46-4.06-4.46H82.64c-.8,0-.9.5-.9,1.6V44.79c0,2,.25,2.91,3.81,2.91,11.59,0,13.3-5.22,14-5.22.35,0,.4.5.4.61,0,1.8-1.3,3.56-2.51,4.91-1.6,1.71-2.71,1.71-4.92,1.71-3.81,0-7.63-.26-11.44-.2-2,0-4.11.2-6.12.2-.46,0-.75-.1-.75-.5.09-.61.59-.51,2.2-1.31,1.31-.6,1.41-2.06,1.41-4.42V20.35c0-2.26,0-4.72-2.71-5.12-.4-.1-1.5-.2-1.5-.81,0-.4.29-.6,1.75-.6,9.48,0,12.1.2,14.2.2,1,0,5.63-.2,7.18-.2.4,0,.5.51.5,1.1,0,5.63-.7,6-1,6-1.21,0-.4-2.41-1.21-3.57s-4.06-1.45-6.42-1.45H85.15c-3.41,0-3.41.15-3.41,3.21Z"/><path class="cls-1" d="M110.24,43.85v1.23c0,1.88.24,2.74,3.59,2.74,10.89,0,12.49-4.92,13.1-4.92.34,0,.38.48.38.58,0,1.69-1.22,3.33-2.36,4.61-1.5,1.61-2.54,1.61-4.62,1.61-3.58,0-7.17-.24-10.75-.19-1.89,0-3.86.19-5.75.19-.42,0-.7-.1-.7-.48.09-.56.56-.46,2.07-1.22,1.22-.56,1.32-1.93,1.32-4.15V19.71c0-2.5-4-2.17-4-3.11,0-.52.33-.61.94-.61,1,0,2.46.19,4.77.19,2.68,0,3.82-.19,4.52-.19s.9.09.9.65c0,1.09-3.45,0-3.45,4.06Z"/><path class="cls-1" d="M161.39,13.37c9.44,0,12.05,3.92,13.5,3.92.41,0,.71-.5,1.21-.5s.6.8.7,4.06c0,1.45.16,2.61.21,3.36s-.11,1-.51,1c-.6,0-.95-1.31-1.15-1.67-3.12-5.41-6.68-8.72-13.15-8.72-9.79,0-14.51,6.57-14.51,16,0,8.83,5,17.67,14.66,17.67,7.88,0,12.79-5.08,13.55-7.44a.85.85,0,0,1,.7-.65c.25,0,.45.3.45.56l-1.15,5.07c-.05.19-3.62,4-14.91,4-10.29,0-17.67-7.13-17.67-17.62S150.8,13.37,161.39,13.37Z"/><path class="cls-1" d="M180.74,32.63c0-9.9,7.64-17.07,17.3-17.07s17,7,17,16.83c0,10.75-7.31,17.63-17.82,17.63C187,50,180.74,42.72,180.74,32.63Zm3.44-1.37c0,8.81,5.7,17.35,15,17.35,6.89,0,12.4-5.56,12.4-14.38,0-8.67-5.8-17.12-15-17.12C188.71,17.11,184.18,23.76,184.18,31.26Z"/><path class="cls-1" d="M226,43.85v1.23c0,1.88.24,2.74,3.59,2.74,10.89,0,12.5-4.92,13.1-4.92.34,0,.39.48.39.58,0,1.69-1.23,3.33-2.37,4.61-1.51,1.61-2.54,1.61-4.61,1.61-3.58,0-7.17-.24-10.75-.19-1.89,0-3.87.19-5.76.19-.42,0-.71-.1-.71-.48.1-.56.57-.46,2.08-1.22,1.23-.56,1.32-1.93,1.32-4.15V19.71c0-2.5-4-2.17-4-3.11,0-.52.33-.61.94-.61,1,0,2.46.19,4.76.19,2.69,0,3.82-.19,4.53-.19s.89.09.89.65c0,1.09-3.44,0-3.44,4.06Z"/><path class="cls-1" d="M253.44,29.85c0,1.6,0,1.6,1.79,1.6h5.1c4.9,0,3.63-3.82,4.76-3.82.38,0,.52.57.52.95,0,1.64-.11,3.25-.11,4.8,0,1.23.11,2.45.11,3.73,0,.42-.19.66-.52.66-1.46,0,.14-4.2-3.82-4.2h-7c-.75,0-.85.47-.85,1.51v10c0,1.88.24,2.74,3.58,2.74,10.9,0,12.51-4.92,13.12-4.92.32,0,.37.48.37.58,0,1.69-1.22,3.33-2.36,4.61-1.5,1.61-2.54,1.61-4.62,1.61-3.58,0-7.16-.24-10.75-.19-1.89,0-3.87.19-5.75.19-.42,0-.71-.1-.71-.48.1-.56.57-.46,2.08-1.22,1.22-.56,1.32-1.93,1.32-4.15V22.11c0-2.11,0-4.43-2.54-4.81-.38-.09-1.42-.19-1.42-.75,0-.37.27-.56,1.65-.56,8.91,0,11.36.19,13.34.19.94,0,5.28-.19,6.75-.19.37,0,.46.47.46,1,0,5.28-.65,5.66-.94,5.66-1.13,0-.37-2.26-1.13-3.35s-3.83-1.37-6-1.37h-3.2c-3.21,0-3.21.15-3.21,3Z"/><path class="cls-1" d="M305.92,32c.95,0,1.27.05,1.27.42,0,1-2.4,0-2.4,3.12v9.71c-4.86,1.55-6.13,4.8-14.52,4.8-10.42,0-16.88-6.5-16.88-17.06,0-10.32,7.64-17.4,17.63-17.4,8.16,0,10.52,3.26,11.84,3.26.52,0,.7-.9,1.22-.9s.47.52.52,1.13l.47,6.23c.05.37,0,.85-.52.85-1.22,0-3.34-9.2-14.48-9.2-8.48,0-12.72,7.26-12.72,15.09,0,8.43,4.8,16.5,13.9,16.5,4.3,0,9.81-2.17,9.81-6.23V34.94c0-2.27-4.1-1.23-4.1-2.45,0-.52.66-.52,1.09-.52Z"/><path class="cls-1" d="M315.87,20.09c0-3.49-3.82-2.55-3.82-3.59,0-.42.08-.51.47-.51,1.74,0,3.44.19,5.19.19,1.46,0,2.92-.19,4.38-.19.75,0,.9.09.9.47,0,1.13-3.4,0-3.4,3.63V45.64c0,3.25,4.2,2.18,4.2,3.58,0,.34-.14.48-1,.48-1.08,0-3.11-.19-5.13-.19-2.88,0-3.87.19-4.53.19-.85,0-1-.24-1-.71,0-1.37,3.68.18,3.68-4.53Z"/><path class="cls-1" d="M328.13,32.63c0-9.9,7.63-17.07,17.3-17.07s17,7,17,16.83c0,10.75-7.3,17.63-17.82,17.63C334.4,50,328.13,42.72,328.13,32.63Zm3.44-1.37c0,8.81,5.71,17.35,15,17.35,6.88,0,12.4-5.56,12.4-14.38,0-8.67-5.8-17.12-15-17.12C336.1,17.11,331.57,23.76,331.57,31.26Z"/><path class="cls-1" d="M78.06,70.51c0-4.92-3.92-3.39-3.92-4.68,0-.33.39-.47.67-.47,1.48,0,2.87.19,4.3.19,3.15,0,6.26-.19,10.37-.19,8.46,0,16.78,6.44,16.78,15.38,0,11.08-5.22,18.78-18.45,18.78-2.44,0-4.88-.2-7.31-.2-.43,0-5,.2-5.35.2s-.48-.2-.48-.48c0-1.11,3.39,0,3.39-4.49Zm3.78,22V94A4.3,4.3,0,0,0,82.13,96c1.57,1.62,5.2,2.2,7.35,2.2,6.78,0,13.24-3.68,13.24-14.81,0-10.76-7.08-16.83-16.16-16.87-4.53,0-4.72.76-4.72,3.06Z"/><path class="cls-1" d="M117,79.4C117,81,117,81,118.82,81H124c5,0,3.68-3.87,4.83-3.87.38,0,.52.57.52,1,0,1.68-.09,3.29-.09,4.88,0,1.24.09,2.48.09,3.77,0,.43-.19.67-.52.67-1.48,0,.14-4.26-3.87-4.26h-7.07c-.78,0-.87.49-.87,1.53V94.84c0,1.91.24,2.77,3.64,2.77,11,0,12.66-5,13.28-5,.34,0,.38.48.38.57,0,1.72-1.24,3.39-2.4,4.68-1.51,1.63-2.57,1.63-4.67,1.63-3.64,0-7.26-.24-10.89-.2-1.92,0-3.93.2-5.84.2-.42,0-.71-.1-.71-.48.09-.57.57-.47,2.1-1.24,1.24-.58,1.34-2,1.34-4.21v-22c0-2.15,0-4.48-2.58-4.86-.39-.11-1.43-.2-1.43-.77,0-.38.29-.57,1.66-.57,9,0,11.53.19,13.53.19,1,0,5.35-.19,6.84-.19.38,0,.47.47.47,1,0,5.35-.67,5.73-.95,5.73-1.15,0-.38-2.3-1.15-3.39s-3.87-1.39-6.11-1.39h-3.26c-3.25,0-3.25.15-3.25,3.06Z"/><path class="cls-1" d="M194.77,94.55C194.87,99,199,97.12,199,99c0,.53-.7.53-1.29.53-1,0-2.88-.22-5-.22-1.65,0-3.37.22-4.71.22-.48,0-.59-.27-.59-.48,0-1.61,3.43-.43,3.32-4.45l-.53-21c-.06-1.34-.27-2.09-.6-2.09s-.85.48-1.39,1.61L177.1,95.94c-.22.49-1.13,2.73-1.66,2.73s-.91-1.17-1.06-1.55L163,73c-.2-.43-.42-.59-.63-.59s-.38.27-.38.81l-.64,19c-.22,7.07,4.81,4.88,4.81,6.75,0,.53-.59.59-1.33.59s-3.11-.22-4.72-.22c-2.78,0-3.69.22-4.65.22-.38,0-.54-.27-.54-.64,0-1.82,3.42.37,3.8-5.25.64-8.83,1.29-14.57,1.29-20.29,0-12.69-5.09-9.69-5.09-11.51,0-.49.42-.6.91-.6,1,0,1.93.22,2.94.22s1.93-.22,2.89-.22c.75,0,.86.92,1.14,1.51l12.73,27.46c.54,1.18.8,1.66,1.18,1.66s.81-1.17,1.66-2.94l12.75-25.86c.32-.59.75-1.83,1.38-1.83s2.26.22,2.52.22c1.24,0,1.71-.22,2.57-.22a.6.6,0,0,1,.54.65c0,1.66-4.23-.48-4.07,5.84Z"/><path class="cls-1" d="M211.47,78.34c0,1.72,0,1.72,1.91,1.72h5.43c5.23,0,3.87-4.08,5.08-4.08.4,0,.56.6.56,1,0,1.76-.11,3.46-.11,5.13,0,1.3.11,2.61.11,4,0,.45-.21.7-.56.7-1.55,0,.15-4.47-4.08-4.47h-7.44c-.81,0-.9.5-.9,1.6V94.58c0,2,.25,2.93,3.82,2.93,11.62,0,13.33-5.24,14-5.24.35,0,.4.51.4.61,0,1.81-1.3,3.57-2.51,4.93-1.61,1.7-2.71,1.7-4.93,1.7-3.82,0-7.64-.24-11.47-.2-2,0-4.12.2-6.13.2-.46,0-.76-.09-.76-.5.11-.6.61-.5,2.22-1.3,1.3-.61,1.4-2.07,1.4-4.43V70.1c0-2.27,0-4.74-2.71-5.13-.4-.11-1.51-.21-1.51-.81,0-.4.3-.6,1.76-.6,9.51,0,12.12.2,14.23.2,1,0,5.63-.2,7.2-.2.39,0,.5.5.5,1.1,0,5.64-.71,6-1,6-1.2,0-.4-2.42-1.2-3.57-1-1.31-4.08-1.46-6.44-1.46h-3.42c-3.42,0-3.42.15-3.42,3.22Zm3.37-16.74,5-5a2.32,2.32,0,0,1,1.65-.92,1.42,1.42,0,0,1,1.29,1.48c0,1-1.52,1.61-2.21,2.06l-4.3,2.37Z"/><path class="cls-1" d="M248.89,76.23c.69,1.16,1,1.76,1.3,1.76s.66-.65,1.51-1.91l4.53-6.54c.6-.91,1.66-2.37,1.66-3.32,0-1.46-2.77-1-2.77-2.21,0-.4.35-.45.65-.45,1.26,0,1.26.2,4.63.2a20,20,0,0,0,3.82-.2c.31,0,.41.3.41.5,0,1-2.06,0-4.93,4.07L252.06,79a1.67,1.67,0,0,0-.41,1,3.52,3.52,0,0,0,.6,1.31L261,95.24c2.66,4.22,4.47,2.12,4.47,3.72,0,.5-.5.55-.91.55-.69,0-2.56-.2-4.57-.2s-3.77.2-4.47.2c-.5,0-.66-.09-.66-.5,0-1.05,2.12-.85,2.12-2.16,0-.75-.16-1.11-1.12-2.62l-6.29-10c-.14-.26-.3-.46-.5-.46s-.39.11-.7.55l-5.49,8.25c-1.14,1.72-2.16,3.12-2.16,4.08,0,1.86,3.17,1.16,3.17,2.36,0,.36-.3.5-.75.5-1.31,0-2.66-.2-4.88-.2-1.41,0-2.87.2-4.28.2-.45,0-.59-.14-.59-.44,0-1.16,3-.71,4.62-3.12l9.26-13.38a2.85,2.85,0,0,0,.5-.86,2.67,2.67,0,0,0-.5-1l-7.8-11.78c-3.72-5.58-6.14-3.41-6.14-4.77a.58.58,0,0,1,.61-.6c1.15,0,1.15.2,5.53.2,1.56,0,3.17-.2,4.73-.2.39,0,.85.15.85.65,0,.7-2.21.45-2.21,1.92,0,.6.65,1.65,2.46,4.47Z"/><path class="cls-1" d="M275.18,67.93c0-3.72-4.07-2.72-4.07-3.82,0-.45.1-.55.5-.55,1.87,0,3.68.2,5.54.2,1.55,0,3.11-.2,4.67-.2.81,0,.95.1.95.5,0,1.2-3.61,0-3.61,3.87V95.19c0,3.47,4.48,2.32,4.48,3.82,0,.36-.16.5-1,.5-1.16,0-3.32-.2-5.48-.2-3.07,0-4.13.2-4.84.2-.89,0-1.05-.24-1.05-.75,0-1.45,3.92.2,3.92-4.83Z"/><path class="cls-1" d="M306.36,63.1c9.47,0,12.08,3.92,13.54,3.92.4,0,.7-.5,1.2-.5s.6.8.71,4.08c.05,1.45.15,2.61.2,3.37s-.1,1-.5,1c-.61,0-1-1.31-1.16-1.66-3.12-5.43-6.69-8.75-13.18-8.75-9.8,0-14.53,6.59-14.53,16,0,8.85,5,17.71,14.68,17.71,7.91,0,12.82-5.09,13.58-7.45a.88.88,0,0,1,.71-.66c.25,0,.45.31.45.56l-1.16,5.08c0,.2-3.62,4-14.93,4-10.32,0-17.71-7.14-17.71-17.66S295.76,63.1,306.36,63.1Z"/><path class="cls-1" d="M325.84,81.31c0-10.56,8.14-18.21,18.45-18.21s18.16,7.45,18.16,18c0,11.47-7.8,18.81-19,18.81C332.52,99.87,325.84,92.07,325.84,81.31Zm3.66-1.46c0,9.4,6.09,18.51,16.05,18.51,7.34,0,13.22-5.93,13.22-15.34,0-9.26-6.18-18.26-16-18.26C334.33,64.76,329.5,71.86,329.5,79.85Z"/><polygon class="cls-2" points="0.55 0 53.23 0 53.23 4.64 5.2 4.64 5.2 105.35 53.23 105.35 53.23 110 0.55 110 0.55 0 0.55 0"/><path class="cls-2" d="M9.85,9.29V52.68H53.23V9.29Zm34.35,34c0,.17-3.15,3.5-13,3.5-9,0-15.39-6.21-15.39-15.35s6.52-16.62,15.74-16.62c8.22,0,10.5,3.42,11.76,3.42.35,0,.61-.44,1-.44s.52.7.61,3.54c.05,1.27.14,2.27.18,2.93s-.09.88-.44.88c-.52,0-.83-1.14-1-1.45C41,19,37.9,16.13,32.26,16.13c-8.53,0-12.63,5.72-12.63,13.94,0,7.7,4.37,15.39,12.76,15.39,6.86,0,11.15-4.41,11.81-6.47a.74.74,0,0,1,.61-.57c.22,0,.39.27.39.48Z"/><path class="cls-2" d="M9.85,57.32V100.7H53.23V57.32Zm37.31,36.3c-.78,0-2.19-.16-3.81-.16-1.25,0-2.55.16-3.56.16-.37,0-.45-.2-.45-.36,0-1.22,2.6-.33,2.52-3.36l-.41-15.85c0-1-.2-1.58-.44-1.58s-.65.36-1.06,1.21L31.58,90.91c-.16.37-.85,2.07-1.25,2.07s-.69-.89-.81-1.17L20.9,73.56c-.16-.33-.32-.44-.48-.44s-.29.19-.29.6l-.48,14.36c-.16,5.34,3.65,3.68,3.65,5.1,0,.4-.46.44-1,.44s-2.34-.16-3.56-.16c-2.1,0-2.79.16-3.52.16-.28,0-.4-.2-.4-.48,0-1.38,2.59.28,2.87-4,.48-6.67,1-11,1-15.33,0-9.58-3.84-7.32-3.84-8.69,0-.36.32-.45.68-.45.73,0,1.46.17,2.23.17s1.46-.17,2.18-.17.65.69.85,1.14l9.63,20.74c.4.89.6,1.26.89,1.26s.61-.9,1.25-2.23l9.62-19.53c.25-.45.57-1.38,1.06-1.38s1.7.17,1.9.17c.93,0,1.29-.17,1.95-.17a.45.45,0,0,1,.4.49c0,1.25-3.2-.37-3.08,4.41l.57,20.26c.08,3.36,3.2,2,3.2,3.36C48.13,93.62,47.6,93.62,47.16,93.62Z"/></svg>